<svg width="652" height="201" viewBox="0 0 652 201" fill="none" xmlns="http://www.w3.org/2000/svg">
<g clip-path="url(#clip0_1_14)">
<path d="M586.688 92.8759V102.302C584.735 56.8345 553.195 30.7738 516.074 30.7738C495.978 30.7738 477.836 39.3683 464.717 53.2303C469.462 66.2607 471.974 80.1228 471.974 94.8165C471.974 113.946 467.509 132.244 459.414 148.601C472.533 165.79 492.908 176.603 515.795 176.603C550.683 176.603 575.245 157.473 583.339 129.194H545.101C539.24 140.284 527.517 145.274 515.515 145.274C498.769 145.274 485.093 134.739 480.348 117.828H585.014H586.13H586.409V173.553H622.414V93.1531C622.414 75.9641 633.858 64.5972 652 64.5972V31.3283C610.692 29.3876 586.688 56.0028 586.688 92.8759ZM481.185 88.7172C486.209 72.6372 499.327 62.3793 515.795 62.3793C532.82 62.3793 546.497 72.6372 550.962 88.7172H481.185Z" fill="white"/>
<path fill-rule="evenodd" clip-rule="evenodd" d="M382.101 108.679C381.264 108.679 380.426 108.956 379.589 109.51L369.541 93.1531C370.658 92.3214 371.495 90.9352 371.495 89.2717C371.495 86.4993 369.262 84.2814 366.471 84.2814C363.68 84.2814 361.447 86.4993 361.447 89.2717C361.447 91.2124 362.563 92.8758 363.959 93.7076L349.166 136.125C348.887 136.125 348.329 136.125 347.771 136.125C347.491 136.125 347.491 136.125 347.212 136.125L328.233 60.1614C330.466 58.7752 331.861 56.5572 331.861 53.7848C331.861 49.6262 328.512 46.5765 324.604 46.5765C320.418 46.5765 317.348 49.9034 317.348 53.7848C317.348 56.0027 318.464 57.9434 319.86 59.3296L296.135 110.342C295.856 110.342 295.577 110.342 295.298 110.342C290.274 110.342 286.366 114.223 286.366 119.214C286.366 124.204 290.274 128.086 295.298 128.086C300.322 128.086 304.229 124.204 304.229 119.214C304.229 116.719 303.113 114.223 301.159 112.56L323.767 60.9931C324.046 60.9931 324.325 60.9931 324.604 60.9931L345.259 136.403C343.026 137.512 341.351 139.73 341.351 142.225C341.351 145.829 344.142 148.601 347.771 148.601C351.399 148.601 354.19 145.829 354.19 142.225C354.19 139.73 352.795 137.512 350.562 136.403L365.075 93.7076C365.354 93.7076 365.634 93.7076 366.192 93.7076C367.029 93.7076 367.587 93.4303 368.146 93.1531L378.473 109.51C377.635 110.342 377.077 111.451 377.077 112.837C377.077 115.332 379.31 117.55 381.822 117.55C384.334 117.55 386.567 115.332 386.567 112.837C386.846 110.897 384.613 108.679 382.101 108.679Z" fill="#FFDB58"/>
<path d="M420.06 29.3876C380.426 -9.70345 316.51 -9.70345 277.156 29.3876C271.574 34.9324 266.829 41.0317 262.921 47.4083C265.712 43.5269 268.783 39.6455 272.411 36.3186C306.462 2.49517 361.447 2.49517 395.498 36.3186C429.55 70.1421 429.55 124.759 395.498 158.582C361.447 192.406 306.462 192.406 272.411 158.582C259.572 145.829 251.757 130.581 248.408 114.501C251.199 135.294 260.968 155.532 277.156 171.612C316.51 210.981 380.706 210.981 420.06 171.612C459.694 132.244 459.694 68.7559 420.06 29.3876Z" fill="#FFDB58"/>
<path d="M229.986 128.917C224.683 137.512 214.077 144.166 202.075 144.166C182.259 144.166 166.07 126.145 166.07 104.243C166.07 81.7862 181.979 63.4883 202.075 63.4883C212.123 63.4883 221.055 68.2014 226.916 74.8552C228.87 62.3793 233.057 50.7352 238.36 39.6455C228.033 33.8234 215.752 30.7738 202.075 30.7738C166.628 30.7738 139.555 54.0621 132.019 85.6676V78.4593C132.019 67.3696 127.553 31.051 70.8938 31.051C34.3305 31.051 8.6524 50.7352 5.02397 77.3503H41.0291C44.3784 65.429 58.8921 59.8841 71.7312 59.8841C87.6404 59.8841 97.4093 65.7062 97.4093 73.1917C97.4093 84.5586 80.9418 87.331 57.4966 89.2717C26.2363 91.4897 0 99.8069 0 131.135C0 161.354 27.0736 176.326 56.9384 176.326C76.476 176.326 90.7106 170.503 99.9212 160.8C100.759 166.068 101.875 170.226 103.55 173.83H136.485C134.531 168.563 132.298 158.028 132.298 151.097V122.263C139.834 153.592 166.908 176.603 202.354 176.603C219.38 176.603 234.452 171.89 246.175 163.295C245.616 162.463 245.058 161.354 244.5 160.245C238.081 150.542 233.336 140.007 229.986 128.917ZM98.5257 119.491C98.5257 137.234 81.2209 144.72 59.7295 144.72C45.2158 144.72 36.0051 139.452 36.0051 131.412C36.0051 121.154 46.8904 117.273 64.4743 115.61C79.2671 113.946 90.7106 111.451 98.5257 106.738V119.491Z" fill="white"/>
</g>
<defs>
<clipPath id="clip0_1_14">
<rect width="652" height="201" fill="white"/>
</clipPath>
</defs>
</svg>
