<svg width="21" height="21" viewBox="0 0 21 21" fill="none" xmlns="http://www.w3.org/2000/svg">
<path d="M15.2266 16.9861L17.3628 14.7128L19.8416 16.9474C20.4814 17.5242 20.5219 18.5007 19.932 19.1284V19.1284C19.3421 19.7562 18.3452 19.7975 17.7054 19.2207L15.2266 16.9861Z" fill="#1E1E1E"/>
<path d="M16.6438 2.86846C14.8025 1.03158 12.3078 0 9.707 0C7.10616 0 4.61149 1.03158 2.77021 2.86846C2.23492 3.3974 1.76602 3.98956 1.37386 4.63184C1.64705 4.23985 1.95345 3.87208 2.28967 3.5326C3.61969 2.19291 5.35923 1.33607 7.23196 1.09818C9.10468 0.860299 11.0032 1.25501 12.6259 2.21962C14.2486 3.18423 15.5025 4.66342 16.1884 6.42222C16.8742 8.18101 16.9527 10.1186 16.4113 11.9271C15.87 13.7356 14.7398 15.3113 13.2005 16.404C11.6611 17.4967 9.80068 18.0437 7.91485 17.958C6.02902 17.8724 4.22588 17.159 2.79187 15.9313C1.35785 14.7036 0.375196 13.0319 0 11.1817C0.216146 12.7233 0.795933 14.1913 1.69147 15.4645C2.58702 16.7377 3.77261 17.7796 5.15034 18.5041C6.52807 19.2286 8.0584 19.615 9.61493 19.6313C11.1715 19.6475 12.7095 19.2932 14.1021 18.5977C15.4947 17.9021 16.7018 16.8852 17.6237 15.631C18.5457 14.3768 19.156 12.9212 19.4043 11.3845C19.6527 9.84782 19.5318 8.27409 19.0518 6.79332C18.5718 5.31255 17.7464 3.96723 16.6438 2.86846V2.86846Z" fill="#1E1E1E"/>
<g clip-path="url(#clip0_1692_395)">
<path d="M4.24931 13.3912C4.0672 13.6182 4.10704 13.9712 4.33467 14.1414L5.63979 14.7277C5.82759 14.8685 6.08178 14.8328 6.23354 14.6479L7.97496 12.5065L6.47256 10.6593L4.24931 13.3912ZM12.5163 13.3912C12.5163 13.3912 6.97715 6.5698 6.91266 6.45422C7.20479 6.2777 7.67524 6.07806 8.38281 6.07806C9.09038 6.07806 9.56083 6.2777 9.85296 6.45422C9.79036 6.5719 8.79066 7.81177 8.79066 7.81177L10.2912 9.65477L10.9399 8.85621C11.4844 8.18584 11.5716 7.20445 11.1562 6.429L10.3272 4.88442C10.2456 4.73311 10.1394 4.60492 10.0085 4.50615C9.23645 3.92614 7.59177 3.88201 6.75711 4.50615C6.62621 4.60492 6.51998 4.73311 6.43841 4.88442L5.61133 6.4227C5.58288 6.47523 4.90756 7.72982 5.82949 8.86041L10.5359 14.6458C10.6876 14.8328 10.9418 14.8664 11.1296 14.7256L12.4347 14.1393C12.6605 13.9712 12.7003 13.6182 12.5163 13.3912Z" fill="#1E1E1E"/>
</g>
<defs>
<clipPath id="clip0_1692_395">
<rect width="8.49843" height="10.7596" fill="white" transform="translate(4.13281 4.05432)"/>
</clipPath>
</defs>
</svg>
