<svg width="84" height="39" viewBox="0 0 84 39" fill="none" xmlns="http://www.w3.org/2000/svg">
<path d="M25.6713 21.0156C25.5003 21.0157 25.3329 21.0648 25.189 21.1571L23.2436 18.0053C23.4062 17.8786 23.5236 17.7028 23.5782 17.504C23.6329 17.3053 23.622 17.0942 23.547 16.9022C23.4721 16.7101 23.3371 16.5474 23.1623 16.4382C22.9874 16.3291 22.782 16.2793 22.5766 16.2962C22.3711 16.3132 22.1766 16.396 22.0221 16.5324C21.8675 16.6688 21.7611 16.8515 21.7187 17.0532C21.6762 17.2549 21.7001 17.4649 21.7866 17.652C21.8732 17.8391 22.0178 17.9933 22.199 18.0916L19.3334 26.3165C19.2519 26.3001 19.1689 26.2918 19.0858 26.2919C19.0456 26.2919 19.007 26.2999 18.9679 26.3036L15.3236 11.6084C15.5849 11.461 15.7924 11.234 15.9159 10.9604C16.0393 10.6869 16.0722 10.3811 16.0098 10.0876C15.9474 9.7941 15.793 9.52815 15.569 9.32848C15.3449 9.12882 15.063 9.00586 14.7643 8.9775C14.4656 8.94914 14.1656 9.01687 13.908 9.17082C13.6504 9.32478 13.4487 9.55692 13.3322 9.83346C13.2157 10.11 13.1905 10.4165 13.2602 10.7084C13.33 11.0002 13.4911 11.2622 13.72 11.4562L9.18017 21.3307C9.11944 21.3214 9.05826 21.3153 8.99688 21.3125C8.59547 21.3089 8.2055 21.4462 7.8949 21.7005C7.58431 21.9548 7.37275 22.31 7.2971 22.7042C7.22144 23.0984 7.28647 23.5067 7.48086 23.8579C7.67525 24.2091 7.98669 24.481 8.36093 24.6262C8.73516 24.7715 9.14848 24.7808 9.52889 24.6526C9.90931 24.5245 10.2327 24.2669 10.4428 23.9249C10.6528 23.5828 10.7362 23.1779 10.6785 22.7806C10.6207 22.3834 10.4254 22.019 10.1266 21.7509L14.443 11.7793C14.5007 11.7886 14.5588 11.7943 14.6172 11.7965L18.5831 26.3969C18.3217 26.5091 18.1062 26.707 17.9723 26.958C17.8384 27.209 17.7939 27.4982 17.8463 27.7778C17.8986 28.0574 18.0447 28.3109 18.2604 28.4965C18.4761 28.682 18.7485 28.7885 19.0328 28.7985C19.3172 28.8085 19.5964 28.7214 19.8246 28.5514C20.0528 28.3815 20.2163 28.1389 20.2882 27.8637C20.36 27.5884 20.336 27.2968 20.22 27.037C20.1041 26.7772 19.9031 26.5647 19.6501 26.4344L22.4557 18.195C22.5197 18.2084 22.5849 18.215 22.6503 18.2148C22.7833 18.2147 22.9148 18.1866 23.0362 18.1323L25.0271 21.2836C24.8805 21.431 24.7896 21.6248 24.7697 21.8318C24.7499 22.0387 24.8024 22.2462 24.9183 22.4189C25.0342 22.5915 25.2064 22.7186 25.4055 22.7786C25.6046 22.8386 25.8183 22.8278 26.0103 22.7479C26.2023 22.668 26.3607 22.5241 26.4585 22.3406C26.5563 22.1571 26.5875 21.9454 26.5468 21.7415C26.5061 21.5375 26.396 21.354 26.2352 21.2222C26.0744 21.0903 25.8728 21.0183 25.6649 21.0183L25.6713 21.0156Z" fill="#FFDB58"/>
<path d="M32.9598 5.6895C30.8925 3.62101 28.3845 2.04636 25.6231 1.08314C22.8618 0.119927 19.9185 -0.20695 17.0132 0.126926C14.1078 0.460802 11.3154 1.4468 8.84454 3.01128C6.37369 4.57576 4.28825 6.67828 2.74397 9.16181C4.72254 6.36931 7.51147 4.25231 10.7331 3.09746C13.9548 1.94261 17.4535 1.80571 20.7556 2.7053C24.0576 3.60489 27.0034 5.49751 29.1941 8.12687C31.3849 10.7562 32.7146 13.9953 33.0034 17.4055C33.2921 20.8157 32.5259 24.2322 30.8084 27.1925C29.091 30.1528 26.5053 32.5137 23.4015 33.9557C20.2977 35.3977 16.8258 35.851 13.4558 35.2542C10.0859 34.6575 6.9807 33.0395 4.56079 30.6195C2.23208 28.2967 0.644855 25.3352 0 22.1099C0.426101 25.1599 1.5715 28.0648 3.34163 30.5848C5.11177 33.1048 7.45588 35.1677 10.1805 36.6031C12.9051 38.0385 15.932 38.8054 19.0114 38.8403C22.0908 38.8753 25.1343 38.1773 27.8907 36.804C30.6472 35.4308 33.0375 33.4216 34.8644 30.9424C36.6912 28.4632 37.9022 25.5851 38.3974 22.5456C38.8926 19.5061 38.6578 16.3924 37.7123 13.4615C36.7668 10.5306 35.1379 7.86667 32.9598 5.6895V5.6895Z" fill="#FFDB58"/>
<path d="M44.7859 6.62669H46.7422C47.1008 6.62669 47.4146 6.68375 47.6836 6.79786C47.9607 6.90383 48.193 7.05462 48.3805 7.25025C48.568 7.43772 48.7066 7.6578 48.7962 7.91048C48.894 8.16316 48.9429 8.42807 48.9429 8.70521V9.34099C48.9429 9.65888 48.8492 9.95232 48.6617 10.2213C48.4824 10.4821 48.2053 10.6981 47.8303 10.8693C48.1971 11.0486 48.4946 11.2809 48.7229 11.5662C48.9511 11.8515 49.0652 12.1531 49.0652 12.471V13.1068C49.0652 13.3921 49.0163 13.6611 48.9185 13.9137C48.8207 14.1583 48.678 14.3783 48.4906 14.574C48.3112 14.7614 48.083 14.9122 47.8059 15.0264C47.5287 15.1323 47.2149 15.1853 46.8644 15.1853H44.7859V6.62669ZM45.8252 14.1949H46.8644C47.2394 14.1949 47.5247 14.089 47.7203 13.8771C47.9159 13.657 48.0137 13.4002 48.0137 13.1068V12.471C48.0137 12.1776 47.9037 11.929 47.6836 11.7252C47.4717 11.5132 47.1579 11.4073 46.7422 11.4073H46.2531L45.8252 10.4047V14.1949ZM46.6321 10.4047C47.0478 10.4047 47.3616 10.3028 47.5736 10.099C47.7936 9.88711 47.9037 9.63443 47.9037 9.34099V8.70521C47.9037 8.41177 47.8059 8.15909 47.6102 7.94716C47.4146 7.72708 47.1253 7.61704 46.7422 7.61704H45.8252V10.4047H46.6321ZM54.859 13.2168C54.859 13.494 54.8101 13.7548 54.7123 13.9993C54.6145 14.2439 54.4718 14.4599 54.2843 14.6473C54.0969 14.8267 53.8605 14.9734 53.5752 15.0875C53.2981 15.1935 52.9761 15.2464 52.6093 15.2464C52.2425 15.2464 51.9165 15.1935 51.6312 15.0875C51.3459 14.9734 51.1095 14.8267 50.922 14.6473C50.7346 14.4599 50.5919 14.2439 50.4941 13.9993C50.3963 13.7548 50.3474 13.494 50.3474 13.2168V6.62669H51.3866V13.2168C51.3866 13.5021 51.4885 13.7466 51.6923 13.9504C51.9042 14.146 52.2099 14.2439 52.6093 14.2439C53.0005 14.2439 53.2981 14.146 53.5018 13.9504C53.7138 13.7466 53.8197 13.5021 53.8197 13.2168V6.62669H54.859V13.2168ZM57.3353 6.62669V15.1853H56.2961V6.62669H57.3353ZM59.9144 6.62669V14.1949H62.9221V15.1853H58.8751V6.62669H59.9144ZM65.6751 7.61704V15.1853H64.6359V8.03275L65.6751 7.61704H62.9608V6.62669H67.3502V7.61704H65.6751ZM70.9226 6.62669H72.8789C73.2375 6.62669 73.5513 6.68375 73.8203 6.79786C74.0975 6.90383 74.3298 7.05462 74.5172 7.25025C74.7047 7.43772 74.8433 7.6578 74.9329 7.91048C75.0308 8.16316 75.0797 8.42807 75.0797 8.70521V9.34099C75.0797 9.65888 74.9859 9.95232 74.7985 10.2213C74.6191 10.4821 74.342 10.6981 73.967 10.8693C74.3338 11.0486 74.6314 11.2809 74.8596 11.5662C75.0878 11.8515 75.2019 12.1531 75.2019 12.471V13.1068C75.2019 13.3921 75.153 13.6611 75.0552 13.9137C74.9574 14.1583 74.8148 14.3783 74.6273 14.574C74.448 14.7614 74.2197 14.9122 73.9426 15.0264C73.6655 15.1323 73.3516 15.1853 73.0011 15.1853H70.9226V6.62669ZM71.9619 14.1949H73.0011C73.3761 14.1949 73.6614 14.089 73.857 13.8771C74.0526 13.657 74.1504 13.4002 74.1504 13.1068V12.471C74.1504 12.1776 74.0404 11.929 73.8203 11.7252C73.6084 11.5132 73.2946 11.4073 72.8789 11.4073H72.3898L71.9619 10.4047V14.1949ZM72.7688 10.4047C73.1845 10.4047 73.4984 10.3028 73.7103 10.099C73.9304 9.88711 74.0404 9.63443 74.0404 9.34099V8.70521C74.0404 8.41177 73.9426 8.15909 73.747 7.94716C73.5513 7.72708 73.262 7.61704 72.8789 7.61704H71.9619V10.4047H72.7688ZM80.1643 6.62669H81.2769L79.1862 11.8352V15.1853H78.1347V11.823L76.0562 6.62669H77.181L78.4159 9.74447C78.4811 9.89934 78.5259 10.0583 78.5504 10.2213C78.583 10.3762 78.6197 10.5351 78.6604 10.6981C78.7012 10.5351 78.7379 10.3721 78.7705 10.2091C78.8031 10.0461 78.852 9.88711 78.9172 9.73224L80.1643 6.62669Z" fill="#FFDB58"/>
<path d="M44.4472 26.7909H47.0184L45.9756 22.8712C45.8797 22.5236 45.8257 22.176 45.8137 21.8284C45.8018 21.4808 45.7718 21.1331 45.7238 20.7855C45.6879 21.1331 45.6639 21.4808 45.6519 21.8284C45.6399 22.176 45.586 22.5236 45.4901 22.8712L43.1706 31.4119H41.6064L45.0586 18.8257H46.4071L49.8593 31.4119H48.295L47.432 28.2473H45.0766L44.4472 26.7909ZM52.7019 28.0316C52.7019 29.3142 53.2653 29.9555 54.392 29.9555H57.2869V31.4119H54.374C53.3192 31.4119 52.5221 31.1242 51.9827 30.5488C51.4433 29.9615 51.1736 29.1224 51.1736 28.0316V22.7274L52.7019 22.1161V28.0316ZM54.392 20.2821C53.3012 20.2821 52.7378 20.8694 52.7019 22.0441H51.1736C51.1975 21.0133 51.4792 20.2221 52.0186 19.6707C52.57 19.1074 53.3552 18.8257 54.374 18.8257H57.2869V20.2821H54.392ZM64.0665 22.0441C64.0426 21.4208 63.8807 20.9593 63.5811 20.6597C63.2934 20.36 62.8858 20.2102 62.3584 20.2102H61.855C61.3036 20.2102 60.878 20.372 60.5784 20.6956C60.2907 21.0193 60.1468 21.5227 60.1468 22.206V28.0316C60.1468 28.7148 60.2907 29.2183 60.5784 29.5419C60.878 29.8656 61.3036 30.0274 61.855 30.0274H62.3584C62.9098 30.0274 63.3293 29.8656 63.617 29.5419C63.9167 29.2183 64.0665 28.7148 64.0665 28.0316V22.7274L65.5949 22.1161V28.0316C65.5949 29.1463 65.3192 30.0034 64.7678 30.6028C64.2284 31.2021 63.4312 31.5018 62.3764 31.5018H61.837C60.7821 31.5018 59.979 31.2021 59.4276 30.6028C58.8882 30.0034 58.6185 29.1463 58.6185 28.0316V22.206C58.6185 21.0912 58.8882 20.2341 59.4276 19.6348C59.979 19.0354 60.7821 18.7358 61.837 18.7358H62.3764C62.8439 18.7358 63.2754 18.8077 63.671 18.9515C64.0665 19.0834 64.4022 19.2812 64.6779 19.5449C64.9656 19.7966 65.1873 20.1143 65.3431 20.4978C65.511 20.8814 65.5949 21.3189 65.5949 21.8104V22.0441H64.0665ZM69.2286 24.3816V28.0316C69.2765 29.3142 69.8459 29.9555 70.9367 29.9555H73.6517V31.4119H70.9187C69.8639 31.4119 69.0607 31.1242 68.5094 30.5488C67.9699 29.9615 67.7002 29.1224 67.7002 28.0316V18.8257H73.6517V20.2821H69.2286V24.3816H72.8066V25.856H69.8579L69.2286 24.3816ZM75.4788 20.8754L77.0071 20.2821H75.4788V18.8257H78.3557C78.8831 18.8257 79.3446 18.9156 79.7401 19.0954C80.1477 19.2632 80.4893 19.4969 80.765 19.7966C81.0407 20.0843 81.2445 20.4259 81.3764 20.8215C81.5202 21.2051 81.5921 21.6186 81.5921 22.0621V23.6803C81.5921 24.3037 81.4543 24.867 81.1786 25.3705C80.9149 25.8739 80.5073 26.2635 79.9559 26.5392L81.7899 31.4119H80.1537L78.3916 26.8988H77.6365L77.0071 25.4424V31.4119H75.4788V20.8754ZM77.0071 25.4424H78.3557C78.919 25.4424 79.3446 25.2686 79.6323 24.921C79.9199 24.5734 80.0638 24.1598 80.0638 23.6803V22.0621C80.0638 21.5826 79.9199 21.1691 79.6323 20.8215C79.3446 20.4619 78.919 20.2821 78.3557 20.2821H77.0071V25.4424Z" fill="#FFDB58"/>
</svg>
