<svg width="100" height="100" viewBox="0 0 100 100" fill="none" xmlns="http://www.w3.org/2000/svg">
<rect width="100" height="100" rx="2" fill="#325599"/>
<path d="M71.2067 24.1082C64.824 17.5639 56.1763 13.8887 47.1606 13.8887C38.1449 13.8887 29.4973 17.5639 23.1146 24.1082C21.259 25.9927 19.6336 28.1023 18.2741 30.3906C19.2211 28.9941 20.2833 27.6838 21.4488 26.4743C26.0592 21.7014 32.0893 18.6487 38.581 17.8012C45.0727 16.9537 51.6539 18.3599 57.279 21.7966C62.9041 25.2332 67.2506 30.5031 69.628 36.7692C72.0055 43.0353 72.2775 49.9383 70.4009 56.3814C68.5244 62.8246 64.6068 68.4386 59.2705 72.3316C53.9343 76.2245 47.4854 78.1732 40.9482 77.8681C34.4111 77.5629 28.1606 75.0215 23.1896 70.6474C18.2187 66.2734 14.8123 60.3176 13.5117 53.7261C14.261 59.2182 16.2708 64.4483 19.3751 68.9844C22.4795 73.5205 26.5893 77.2325 31.3652 79.8138C36.141 82.395 41.4458 83.7714 46.8415 83.8294C52.2371 83.8873 57.5688 82.6251 62.3961 80.147C67.2234 77.6689 71.4078 74.046 74.6037 69.5776C77.7996 65.1091 79.9153 59.9233 80.7761 54.4485C81.6369 48.9737 81.218 43.367 79.5541 38.0914C77.8901 32.8158 75.0289 28.0228 71.2067 24.1082Z" fill="white"/>
<path d="M66.2969 74.4048L73.702 66.3058L82.2857 74.2587C84.5086 76.3183 84.653 79.8009 82.6081 82.0374C80.5633 84.2739 77.1035 84.4173 74.8806 82.3577L66.2969 74.4048Z" fill="white"/>
<g clip-path="url(#clip0_1197_829)">
<path d="M28.233 61.5987C27.6017 62.4073 27.7398 63.6651 28.5289 64.2716L33.053 66.3604C33.704 66.8621 34.5852 66.7348 35.1113 66.0759L41.1478 58.4467L35.9398 51.8657L28.233 61.5987ZM56.8902 61.5987C56.8902 61.5987 37.689 37.296 37.4654 36.8842C38.4781 36.2553 40.1088 35.544 42.5616 35.544C45.0144 35.544 46.6452 36.2553 47.6578 36.8842C47.4408 37.3035 43.9754 41.7208 43.9754 41.7208L49.1768 48.2869L51.4257 45.4418C53.313 43.0535 53.6155 39.5571 52.1754 36.7944L49.3018 31.2914C49.019 30.7524 48.6508 30.2957 48.197 29.9438C45.5207 27.8774 39.8195 27.7201 36.9262 29.9438C36.4724 30.2957 36.1042 30.7524 35.8214 31.2914L32.9544 36.7719C32.8558 36.9591 30.5148 41.4288 33.7106 45.4568L50.0251 66.0685C50.5512 66.7348 51.4323 66.8546 52.0833 66.353L56.6075 64.2641C57.39 63.6651 57.5281 62.4073 56.8902 61.5987Z" fill="white"/>
</g>
<defs>
<clipPath id="clip0_1197_829">
<rect width="29.4595" height="38.3333" fill="white" transform="translate(27.832 28.334)"/>
</clipPath>
</defs>
</svg>
