<svg width="1544" height="314" viewBox="0 0 1544 314" fill="none" xmlns="http://www.w3.org/2000/svg">
<path d="M1276.54 282.141C1276.62 284.451 1276.08 286.74 1274.98 288.771C1273.97 290.527 1272.55 292.011 1270.83 293.091C1269.02 294.212 1267.03 295.006 1264.95 295.436C1262.72 295.915 1260.45 296.155 1258.18 296.151H1239V248H1258.18C1260.1 248.007 1262.01 248.2 1263.89 248.577C1265.76 248.933 1267.55 249.6 1269.2 250.549C1270.92 251.522 1272.34 252.958 1273.28 254.694C1274.23 256.43 1274.68 258.397 1274.57 260.373C1274.66 262.773 1273.89 265.126 1272.39 267.005C1270.89 268.786 1268.91 270.098 1266.68 270.783V270.919C1268.02 271.139 1269.31 271.564 1270.52 272.179C1271.7 272.772 1272.76 273.566 1273.65 274.526C1274.55 275.501 1275.26 276.63 1275.76 277.859C1276.3 279.221 1276.56 280.676 1276.54 282.141V282.141ZM1263.35 261.942C1263.4 261.232 1263.25 260.523 1262.92 259.893C1262.59 259.262 1262.09 258.735 1261.48 258.37C1259.76 257.52 1257.85 257.133 1255.94 257.249H1250.22V267.179H1256.48C1258.27 267.286 1260.04 266.822 1261.55 265.854C1262.15 265.401 1262.63 264.807 1262.94 264.125C1263.25 263.442 1263.39 262.692 1263.35 261.942V261.942ZM1264.91 281.053C1264.99 280.217 1264.82 279.378 1264.42 278.64C1264.02 277.901 1263.41 277.298 1262.67 276.904C1260.79 276.055 1258.74 275.659 1256.69 275.748H1250.22V286.766H1256.75C1257.7 286.763 1258.64 286.684 1259.57 286.529C1260.5 286.386 1261.39 286.099 1262.23 285.678C1263.08 285.257 1263.79 284.594 1264.27 283.771C1264.75 282.948 1264.97 282.003 1264.91 281.053Z" fill="#7B8DB1"/>
<path d="M1301.53 301.962C1300.91 303.601 1300.15 305.183 1299.25 306.688C1298.46 308.022 1297.45 309.218 1296.26 310.227C1295.06 311.225 1293.67 311.975 1292.18 312.436C1290.38 312.97 1288.51 313.225 1286.64 313.191C1285.56 313.189 1284.48 313.121 1283.41 312.987C1282.43 312.877 1281.47 312.696 1280.52 312.443L1281.74 303.058C1282.33 303.25 1282.93 303.397 1283.54 303.499C1284.14 303.607 1284.74 303.664 1285.35 303.67C1286.02 303.732 1286.69 303.658 1287.34 303.454C1287.98 303.249 1288.57 302.917 1289.09 302.479C1289.97 301.504 1290.64 300.358 1291.06 299.113L1292.15 296.325L1278 263H1290.38L1297.93 284.763H1298.14L1304.87 263H1316.71L1301.53 301.962Z" fill="#7B8DB1"/>
<path d="M1522.62 271.262V274.318C1521.96 259.517 1511.81 251.058 1499.77 251.058C1496.65 251.071 1493.56 251.724 1490.71 252.977C1487.85 254.231 1485.28 256.057 1483.16 258.343C1484.97 263.361 1485.75 268.691 1485.47 274.018C1485.18 279.345 1483.83 284.561 1481.5 289.358C1483.64 292.185 1486.4 294.48 1489.56 296.064C1492.73 297.649 1496.22 298.481 1499.77 298.494C1511.01 298.494 1519 292.257 1521.64 283.033H1509.25C1508.29 284.705 1506.89 286.081 1505.21 287.01C1503.52 287.94 1501.61 288.387 1499.68 288.303C1497.05 288.327 1494.5 287.452 1492.43 285.822C1490.37 284.192 1488.93 281.906 1488.35 279.343H1522.6V297.439H1534.19V271.262C1534.12 270.002 1534.33 268.741 1534.79 267.565C1535.25 266.39 1535.95 265.326 1536.86 264.446C1537.76 263.565 1538.85 262.889 1540.03 262.461C1541.22 262.033 1542.49 261.864 1543.75 261.965V251.091C1530.42 250.607 1522.62 259.23 1522.62 271.262ZM1488.52 269.857C1489.18 267.394 1490.62 265.216 1492.64 263.66C1494.66 262.103 1497.13 261.256 1499.68 261.25C1502.27 261.174 1504.8 261.987 1506.87 263.553C1508.93 265.118 1510.39 267.343 1511.01 269.857H1488.52Z" fill="#7B8DB1"/>
<path fill-rule="evenodd" clip-rule="evenodd" d="M1458.21 276.373C1457.93 276.375 1457.65 276.458 1457.41 276.613L1454.13 271.308C1454.41 271.094 1454.6 270.798 1454.69 270.463C1454.79 270.128 1454.77 269.773 1454.64 269.45C1454.51 269.127 1454.29 268.853 1453.99 268.67C1453.7 268.486 1453.35 268.402 1453.01 268.431C1452.66 268.46 1452.33 268.599 1452.07 268.829C1451.81 269.058 1451.63 269.366 1451.56 269.705C1451.49 270.045 1451.53 270.398 1451.68 270.713C1451.82 271.028 1452.06 271.288 1452.37 271.454L1447.55 285.293C1447.41 285.264 1447.27 285.25 1447.13 285.25C1447.06 285.25 1447 285.265 1446.93 285.27L1440.8 260.537C1441.24 260.288 1441.59 259.906 1441.8 259.445C1442.01 258.984 1442.06 258.469 1441.95 257.975C1441.85 257.481 1441.59 257.034 1441.21 256.698C1440.83 256.362 1440.36 256.156 1439.85 256.109C1439.35 256.062 1438.85 256.177 1438.41 256.437C1437.98 256.697 1437.64 257.088 1437.45 257.554C1437.25 258.02 1437.21 258.536 1437.33 259.028C1437.45 259.519 1437.72 259.959 1438.1 260.285L1430.46 276.91C1430.36 276.91 1430.26 276.88 1430.15 276.88C1429.48 276.873 1428.82 277.104 1428.3 277.533C1427.77 277.961 1427.42 278.559 1427.29 279.224C1427.16 279.888 1427.27 280.576 1427.6 281.167C1427.93 281.759 1428.45 282.217 1429.08 282.462C1429.71 282.707 1430.41 282.722 1431.05 282.507C1431.69 282.291 1432.24 281.857 1432.59 281.28C1432.94 280.704 1433.08 280.022 1432.99 279.352C1432.89 278.683 1432.56 278.069 1432.06 277.618L1439.32 260.834C1439.42 260.85 1439.52 260.859 1439.61 260.862L1446.29 285.439C1445.85 285.628 1445.49 285.961 1445.26 286.384C1445.04 286.806 1444.96 287.293 1445.05 287.764C1445.14 288.235 1445.38 288.662 1445.75 288.975C1446.11 289.287 1446.57 289.467 1447.05 289.483C1447.53 289.5 1448 289.353 1448.38 289.067C1448.77 288.781 1449.04 288.372 1449.16 287.908C1449.28 287.445 1449.24 286.954 1449.05 286.516C1448.85 286.079 1448.51 285.721 1448.09 285.502L1452.81 271.633C1452.92 271.655 1453.03 271.666 1453.14 271.665C1453.36 271.665 1453.58 271.618 1453.79 271.527L1457.14 276.832C1456.89 277.08 1456.74 277.406 1456.71 277.754C1456.67 278.102 1456.76 278.45 1456.96 278.74C1457.15 279.029 1457.44 279.242 1457.78 279.343C1458.11 279.443 1458.47 279.424 1458.79 279.289C1459.12 279.154 1459.38 278.912 1459.55 278.604C1459.71 278.295 1459.76 277.939 1459.69 277.597C1459.62 277.254 1459.44 276.946 1459.17 276.725C1458.9 276.504 1458.56 276.383 1458.21 276.383L1458.21 276.373Z" fill="#7B8DB1"/>
<path d="M1470.48 250.577C1467 247.095 1462.78 244.445 1458.13 242.823C1453.48 241.202 1448.53 240.652 1443.64 241.214C1438.75 241.776 1434.05 243.436 1429.89 246.07C1425.73 248.703 1422.22 252.243 1419.62 256.424C1423.36 251.149 1428.8 247.325 1435.03 245.595C1441.26 243.866 1447.89 244.337 1453.81 246.93C1459.74 249.523 1464.58 254.079 1467.54 259.829C1470.49 265.579 1471.37 272.172 1470.03 278.496C1468.69 284.82 1465.21 290.489 1460.18 294.546C1455.15 298.603 1448.87 300.8 1442.4 300.767C1435.94 300.735 1429.68 298.474 1424.69 294.366C1419.7 290.258 1416.28 284.554 1415 278.217C1415.72 283.349 1417.65 288.237 1420.63 292.477C1423.61 296.718 1427.55 300.188 1432.14 302.603C1436.72 305.018 1441.82 306.308 1447 306.366C1452.18 306.425 1457.3 305.25 1461.94 302.939C1466.58 300.628 1470.6 297.247 1473.68 293.075C1476.75 288.903 1478.79 284.06 1479.62 278.945C1480.46 273.83 1480.06 268.59 1478.47 263.658C1476.88 258.726 1474.14 254.242 1470.48 250.577V250.577Z" fill="#7B8DB1"/>
<path d="M1410.36 282.907C1409.4 284.43 1408.07 285.686 1406.49 286.558C1404.91 287.43 1403.14 287.891 1401.34 287.897C1398.08 287.688 1395.05 286.207 1392.88 283.774C1390.71 281.341 1389.59 278.152 1389.75 274.897C1389.75 267.604 1394.93 261.632 1401.34 261.632C1402.86 261.65 1404.35 261.989 1405.73 262.625C1407.11 263.261 1408.33 264.181 1409.33 265.325C1409.99 261.351 1411.24 257.499 1413.06 253.904C1409.47 251.944 1405.43 250.944 1401.34 251.002C1396.09 250.933 1390.98 252.667 1386.86 255.915C1382.74 259.162 1379.86 263.727 1378.7 268.844V266.461C1378.7 262.861 1377.29 251.002 1358.93 251.002C1347.08 251.002 1338.82 257.416 1337.68 266.023H1349.26C1350.32 262.159 1355.06 260.315 1359.19 260.315C1364.37 260.315 1367.45 262.247 1367.45 264.617C1367.45 268.307 1362.09 269.186 1354.54 269.889C1344.52 270.766 1336 273.403 1336 283.592C1336 293.431 1344.79 298.262 1354.36 298.262C1356.9 298.425 1359.45 298.056 1361.84 297.179C1364.23 296.301 1366.41 294.935 1368.24 293.166C1368.43 294.617 1368.81 296.036 1369.38 297.383H1380.01C1379.24 294.994 1378.79 292.511 1378.69 290.002V280.758C1379.87 285.854 1382.76 290.392 1386.88 293.611C1391 296.83 1396.1 298.534 1401.33 298.438C1406.39 298.562 1411.35 297.029 1415.45 294.073C1415.27 293.763 1415.12 293.433 1414.95 293.118C1412.94 289.949 1411.4 286.511 1410.36 282.907V282.907ZM1367.89 279.816C1367.89 285.609 1362.27 287.985 1355.33 287.985C1350.68 287.985 1347.69 286.222 1347.69 283.68C1347.69 280.342 1351.2 279.111 1356.91 278.496C1360.74 278.329 1364.48 277.341 1367.89 275.599V279.816Z" fill="#7B8DB1"/>
<path d="M195.297 217.86L222.696 188.704L254.489 217.365C262.695 224.762 263.214 237.286 255.648 245.337C248.082 253.389 235.297 253.919 227.09 246.521L195.297 217.86Z" fill="#325599"/>
<path d="M213.471 36.7902C189.855 13.2308 157.859 0 124.501 0C91.1428 0 59.1466 13.2308 35.5305 36.7902C28.6649 43.5744 22.6508 51.1692 17.621 59.4071C21.1249 54.3794 25.0547 49.6625 29.367 45.3083C46.4258 28.1258 68.7369 17.1361 92.7563 14.0851C116.776 11.034 141.126 16.0965 161.939 28.4684C182.752 40.8403 198.834 59.8121 207.63 82.37C216.427 104.928 217.433 129.778 210.49 152.974C203.547 176.169 189.052 196.38 169.308 210.394C149.564 224.409 125.703 231.424 101.515 230.326C77.3276 229.227 54.2007 220.078 35.8082 204.332C17.4156 188.585 4.81223 167.144 0 143.415C2.77227 163.186 10.2086 182.015 21.6947 198.345C33.1808 214.675 48.3872 228.038 66.0578 237.33C83.7284 246.623 103.356 251.578 123.32 251.787C143.284 251.995 163.011 247.451 180.872 238.53C198.733 229.609 214.215 216.567 226.04 200.48C237.865 184.394 245.693 165.725 248.878 146.015C252.063 126.306 250.513 106.122 244.357 87.1298C238.2 68.1377 227.614 50.8828 213.471 36.7902Z" fill="#325599"/>
<path d="M374.684 152.637L399.82 152.285C398.707 161.719 395.514 169.805 390.24 176.543C385.025 183.223 378.463 188.32 370.553 191.836C362.643 195.293 354.059 196.934 344.801 196.758C336.246 196.582 329.039 194.766 323.18 191.309C317.32 187.793 312.721 183.105 309.381 177.246C306.041 171.387 303.844 164.854 302.789 157.646C301.734 150.439 301.676 143.057 302.613 135.498L303.844 126.621C305.016 118.652 307.154 110.947 310.26 103.506C313.424 96.0645 317.555 89.4434 322.652 83.6426C327.75 77.8418 333.785 73.2715 340.758 69.9316C347.73 66.5918 355.641 65.0098 364.488 65.1855C373.746 65.3613 381.568 67.3535 387.955 71.1621C394.4 74.9121 399.352 80.1562 402.809 86.8945C406.324 93.5742 408.287 101.396 408.697 110.361L383.121 110.273C383.18 105.527 382.594 101.367 381.363 97.793C380.191 94.1602 378.141 91.3477 375.211 89.3555C372.281 87.3047 368.238 86.1914 363.082 86.0156C357.457 85.8398 352.682 86.9531 348.756 89.3555C344.83 91.7578 341.578 94.9805 339 99.0234C336.48 103.066 334.488 107.49 333.023 112.295C331.617 117.1 330.562 121.816 329.859 126.445L328.629 135.586C328.16 139.395 327.838 143.613 327.662 148.242C327.486 152.812 327.867 157.178 328.805 161.338C329.742 165.498 331.559 168.955 334.254 171.709C336.949 174.404 340.963 175.84 346.295 176.016C351.568 176.191 356.109 175.371 359.918 173.555C363.785 171.738 366.92 169.043 369.322 165.469C371.783 161.895 373.57 157.617 374.684 152.637Z" fill="#325599"/>
<path d="M462.398 173.555L469.078 130.928C469.371 128.35 469.254 125.947 468.727 123.721C468.199 121.494 467.115 119.736 465.475 118.447C463.893 117.1 461.637 116.367 458.707 116.25C456.07 116.191 453.697 116.66 451.588 117.656C449.537 118.594 447.838 119.971 446.49 121.787C445.143 123.545 444.205 125.654 443.678 128.115L418.893 128.291C419.186 123.018 420.65 118.477 423.287 114.668C425.982 110.801 429.381 107.637 433.482 105.176C437.584 102.715 442.037 100.898 446.842 99.7266C451.705 98.5547 456.451 98.0273 461.08 98.1445C467.701 98.2617 473.59 99.6387 478.746 102.275C483.961 104.912 487.945 108.691 490.699 113.613C493.512 118.477 494.566 124.395 493.863 131.367L487.271 172.148C486.744 175.547 486.334 179.121 486.041 182.871C485.748 186.562 486.275 190.078 487.623 193.418L487.447 195L463.189 195.088C462.076 191.631 461.52 188.086 461.52 184.453C461.578 180.762 461.871 177.129 462.398 173.555ZM471.891 137.08L469.518 151.406L456.949 151.318C454.43 151.377 451.91 151.729 449.391 152.373C446.93 152.959 444.645 153.896 442.535 155.186C440.426 156.416 438.668 158.027 437.262 160.02C435.914 162.012 435.064 164.443 434.713 167.314C434.42 169.365 434.625 171.211 435.328 172.852C436.031 174.434 437.115 175.693 438.58 176.631C440.104 177.568 441.92 178.066 444.029 178.125C447.018 178.184 449.947 177.627 452.818 176.455C455.689 175.225 458.18 173.496 460.289 171.27C462.398 169.043 463.863 166.465 464.684 163.535L469.957 174.521C468.551 177.803 466.764 180.82 464.596 183.574C462.486 186.328 460.055 188.73 457.301 190.781C454.547 192.773 451.529 194.297 448.248 195.352C444.967 196.465 441.451 196.992 437.701 196.934C432.486 196.816 427.682 195.586 423.287 193.242C418.951 190.84 415.494 187.588 412.916 183.486C410.396 179.326 409.254 174.492 409.488 168.984C409.723 162.773 411.275 157.617 414.146 153.516C417.018 149.355 420.709 146.074 425.221 143.672C429.791 141.27 434.742 139.57 440.074 138.574C445.465 137.52 450.797 136.992 456.07 136.992L471.891 137.08Z" fill="#325599"/>
<path d="M539.039 121.611L526.295 195H501.51L518.033 99.9023H541.236L539.039 121.611ZM531.744 144.111L525.592 144.287C526.236 138.604 527.525 132.979 529.459 127.412C531.393 121.846 534.029 116.836 537.369 112.383C540.768 107.871 544.898 104.326 549.762 101.748C554.684 99.1699 560.396 97.9395 566.9 98.0566C572.174 98.2324 576.51 99.3457 579.908 101.396C583.365 103.389 586.002 106.084 587.818 109.482C589.693 112.881 590.895 116.719 591.422 120.996C592.008 125.273 592.066 129.727 591.598 134.355L581.402 195H556.529L566.812 134.092C567.164 130.986 567.076 128.232 566.549 125.83C566.021 123.428 564.85 121.523 563.033 120.117C561.275 118.711 558.697 117.979 555.299 117.92C551.549 117.803 548.297 118.506 545.543 120.029C542.848 121.553 540.562 123.604 538.688 126.182C536.812 128.76 535.318 131.602 534.205 134.707C533.092 137.812 532.271 140.947 531.744 144.111Z" fill="#325599"/>
<path d="M641.695 177.07C644.801 177.129 647.555 176.543 649.957 175.312C652.418 174.082 654.439 172.354 656.021 170.127C657.604 167.9 658.658 165.322 659.186 162.393L682.477 162.305C681.949 169.395 679.664 175.547 675.621 180.762C671.637 185.977 666.568 189.99 660.416 192.803C654.322 195.615 647.848 196.934 640.992 196.758C634.137 196.641 628.248 195.264 623.326 192.627C618.463 189.99 614.537 186.475 611.549 182.08C608.561 177.627 606.451 172.559 605.221 166.875C604.049 161.191 603.756 155.215 604.342 148.945L604.605 146.309C605.309 139.746 606.891 133.535 609.352 127.676C611.812 121.758 615.094 116.572 619.195 112.119C623.355 107.607 628.248 104.121 633.873 101.66C639.498 99.1406 645.855 97.9688 652.945 98.1445C660.27 98.2617 666.539 99.9316 671.754 103.154C676.969 106.318 680.924 110.654 683.619 116.162C686.373 121.67 687.691 127.998 687.574 135.146L664.371 135.059C664.43 132.188 664.049 129.463 663.229 126.885C662.408 124.248 661.002 122.139 659.01 120.557C657.076 118.916 654.439 118.008 651.1 117.832C647.174 117.715 643.893 118.535 641.256 120.293C638.619 121.992 636.48 124.307 634.84 127.236C633.199 130.107 631.939 133.242 631.061 136.641C630.182 139.98 629.566 143.232 629.215 146.396L629.039 148.945C628.746 151.582 628.57 154.512 628.512 157.734C628.453 160.898 628.775 163.945 629.479 166.875C630.182 169.746 631.471 172.148 633.346 174.082C635.279 175.957 638.062 176.953 641.695 177.07Z" fill="#325599"/>
<path d="M735.738 196.758C729.234 196.641 723.375 195.41 718.16 193.066C712.945 190.664 708.58 187.383 705.064 183.223C701.607 179.062 699.059 174.229 697.418 168.721C695.777 163.213 695.191 157.295 695.66 150.967L696.012 147.363C696.715 140.742 698.326 134.443 700.846 128.467C703.365 122.49 706.734 117.217 710.953 112.646C715.172 108.018 720.152 104.414 725.895 101.836C731.695 99.1992 738.141 97.9688 745.23 98.1445C751.852 98.2617 757.506 99.6094 762.193 102.188C766.881 104.766 770.66 108.223 773.531 112.559C776.402 116.895 778.365 121.846 779.42 127.412C780.475 132.92 780.68 138.691 780.035 144.727L778.629 155.273H705.152L707.877 138.398L756.393 138.486L756.832 136.289C757.301 133.066 757.154 130.078 756.393 127.324C755.631 124.512 754.195 122.256 752.086 120.557C749.977 118.857 747.164 117.949 743.648 117.832C739.605 117.715 736.207 118.564 733.453 120.381C730.699 122.197 728.443 124.6 726.686 127.588C724.928 130.576 723.58 133.828 722.643 137.344C721.705 140.801 721.031 144.141 720.621 147.363L720.27 150.879C719.977 153.984 720.064 157.09 720.533 160.195C721.002 163.242 721.91 165.996 723.258 168.457C724.664 170.918 726.568 172.91 728.971 174.434C731.432 175.957 734.508 176.777 738.199 176.895C742.887 177.012 747.193 176.104 751.119 174.17C755.104 172.178 758.678 169.541 761.842 166.26L772.916 179.619C770.279 183.604 766.91 186.885 762.809 189.463C758.766 191.982 754.4 193.828 749.713 195C745.025 196.23 740.367 196.816 735.738 196.758Z" fill="#325599"/>
<path d="M822.838 121.963L810.182 195H785.484L802.008 99.9023H825.211L822.838 121.963ZM853.863 99.1113L850.787 122.754C849.381 122.52 847.945 122.314 846.48 122.139C845.074 121.963 843.639 121.846 842.174 121.787C838.775 121.729 835.699 122.168 832.945 123.105C830.191 124.043 827.789 125.42 825.738 127.236C823.746 128.994 822.047 131.162 820.641 133.74C819.293 136.318 818.268 139.219 817.564 142.441L812.73 140.859C813.316 136.348 814.283 131.602 815.631 126.621C817.037 121.582 818.971 116.895 821.432 112.559C823.951 108.164 827.145 104.619 831.012 101.924C834.938 99.1699 839.713 97.8223 845.338 97.8809C846.803 97.8809 848.209 97.998 849.557 98.2324C850.963 98.4668 852.398 98.7598 853.863 99.1113Z" fill="#325599"/>
<path d="M968.385 67.0312L946.236 195H920.484L942.721 67.0312H968.385ZM1006.53 67.0312L1002.93 87.6855H901.588L905.191 67.0312H1006.53Z" fill="#325599"/>
<path d="M1028.5 121.963L1015.85 195H991.148L1007.67 99.9023H1030.88L1028.5 121.963ZM1059.53 99.1113L1056.45 122.754C1055.04 122.52 1053.61 122.314 1052.14 122.139C1050.74 121.963 1049.3 121.846 1047.84 121.787C1044.44 121.729 1041.36 122.168 1038.61 123.105C1035.86 124.043 1033.45 125.42 1031.4 127.236C1029.41 128.994 1027.71 131.162 1026.3 133.74C1024.96 136.318 1023.93 139.219 1023.23 142.441L1018.39 140.859C1018.98 136.348 1019.95 131.602 1021.29 126.621C1022.7 121.582 1024.63 116.895 1027.1 112.559C1029.62 108.164 1032.81 104.619 1036.68 101.924C1040.6 99.1699 1045.38 97.8223 1051 97.8809C1052.47 97.8809 1053.87 97.998 1055.22 98.2324C1056.63 98.4668 1058.06 98.7598 1059.53 99.1113Z" fill="#325599"/>
<path d="M1097.67 99.9023L1081.24 195H1056.45L1072.97 99.9023H1097.67ZM1075.7 75.5566C1075.58 71.5723 1076.87 68.3789 1079.57 65.9766C1082.32 63.5742 1085.63 62.3438 1089.5 62.2852C1093.19 62.2266 1096.41 63.3398 1099.17 65.625C1101.92 67.8516 1103.3 70.8691 1103.3 74.6777C1103.41 78.6621 1102.1 81.8555 1099.34 84.2578C1096.59 86.6602 1093.31 87.8906 1089.5 87.9492C1085.81 88.0078 1082.58 86.9238 1079.83 84.6973C1077.13 82.4707 1075.76 79.4238 1075.7 75.5566Z" fill="#325599"/>
<path d="M1155.15 173.555L1161.83 130.928C1162.12 128.35 1162.01 125.947 1161.48 123.721C1160.95 121.494 1159.87 119.736 1158.23 118.447C1156.65 117.1 1154.39 116.367 1151.46 116.25C1148.82 116.191 1146.45 116.66 1144.34 117.656C1142.29 118.594 1140.59 119.971 1139.24 121.787C1137.9 123.545 1136.96 125.654 1136.43 128.115L1111.65 128.291C1111.94 123.018 1113.4 118.477 1116.04 114.668C1118.74 110.801 1122.13 107.637 1126.24 105.176C1130.34 102.715 1134.79 100.898 1139.6 99.7266C1144.46 98.5547 1149.21 98.0273 1153.83 98.1445C1160.46 98.2617 1166.34 99.6387 1171.5 102.275C1176.71 104.912 1180.7 108.691 1183.45 113.613C1186.27 118.477 1187.32 124.395 1186.62 131.367L1180.03 172.148C1179.5 175.547 1179.09 179.121 1178.79 182.871C1178.5 186.562 1179.03 190.078 1180.38 193.418L1180.2 195L1155.94 195.088C1154.83 191.631 1154.27 188.086 1154.27 184.453C1154.33 180.762 1154.62 177.129 1155.15 173.555ZM1164.64 137.08L1162.27 151.406L1149.7 151.318C1147.18 151.377 1144.66 151.729 1142.14 152.373C1139.68 152.959 1137.4 153.896 1135.29 155.186C1133.18 156.416 1131.42 158.027 1130.02 160.02C1128.67 162.012 1127.82 164.443 1127.47 167.314C1127.17 169.365 1127.38 171.211 1128.08 172.852C1128.79 174.434 1129.87 175.693 1131.33 176.631C1132.86 177.568 1134.67 178.066 1136.78 178.125C1139.77 178.184 1142.7 177.627 1145.57 176.455C1148.44 175.225 1150.93 173.496 1153.04 171.27C1155.15 169.043 1156.62 166.465 1157.44 163.535L1162.71 174.521C1161.3 177.803 1159.52 180.82 1157.35 183.574C1155.24 186.328 1152.81 188.73 1150.05 190.781C1147.3 192.773 1144.28 194.297 1141 195.352C1137.72 196.465 1134.21 196.992 1130.46 196.934C1125.24 196.816 1120.44 195.586 1116.04 193.242C1111.71 190.84 1108.25 187.588 1105.67 183.486C1103.15 179.326 1102.01 174.492 1102.24 168.984C1102.48 162.773 1104.03 157.617 1106.9 153.516C1109.77 149.355 1113.46 146.074 1117.97 143.672C1122.54 141.27 1127.5 139.57 1132.83 138.574C1138.22 137.52 1143.55 136.992 1148.82 136.992L1164.64 137.08Z" fill="#325599"/>
<path d="M1244.36 60L1220.98 195H1196.2L1219.58 60H1244.36Z" fill="#325599"/>
<path d="M1296.22 168.193C1296.69 165.381 1295.98 163.213 1294.11 161.689C1292.23 160.107 1289.92 158.906 1287.16 158.086C1284.47 157.266 1282.12 156.621 1280.13 156.152C1276.62 155.215 1273.07 154.043 1269.5 152.637C1265.98 151.172 1262.79 149.355 1259.92 147.188C1257.05 145.02 1254.76 142.383 1253.06 139.277C1251.36 136.113 1250.6 132.393 1250.78 128.115C1250.95 123.018 1252.24 118.594 1254.64 114.844C1257.11 111.035 1260.27 107.9 1264.14 105.439C1268 102.92 1272.22 101.045 1276.79 99.8145C1281.36 98.584 1285.9 98.0273 1290.42 98.1445C1296.74 98.2031 1302.6 99.375 1307.99 101.66C1313.44 103.945 1317.84 107.344 1321.18 111.855C1324.58 116.367 1326.28 121.992 1326.28 128.73L1301.75 128.643C1301.81 126.064 1301.4 123.809 1300.52 121.875C1299.64 119.941 1298.3 118.447 1296.48 117.393C1294.66 116.338 1292.35 115.811 1289.54 115.811C1287.31 115.811 1285.08 116.25 1282.86 117.129C1280.69 117.949 1278.81 119.18 1277.23 120.82C1275.65 122.461 1274.65 124.482 1274.24 126.885C1273.89 128.877 1274.19 130.518 1275.12 131.807C1276.06 133.096 1277.32 134.15 1278.9 134.971C1280.48 135.732 1282.15 136.377 1283.91 136.904C1285.67 137.373 1287.25 137.754 1288.66 138.047C1293.81 139.395 1298.85 141.123 1303.78 143.232C1308.7 145.342 1312.71 148.301 1315.82 152.109C1318.92 155.859 1320.36 160.869 1320.12 167.139C1319.95 172.471 1318.54 177.041 1315.9 180.85C1313.27 184.6 1309.87 187.676 1305.71 190.078C1301.61 192.422 1297.15 194.121 1292.35 195.176C1287.6 196.289 1282.95 196.816 1278.38 196.758C1271.99 196.641 1265.98 195.352 1260.36 192.891C1254.79 190.43 1250.28 186.855 1246.82 182.168C1243.37 177.422 1241.61 171.621 1241.55 164.766L1264.75 164.854C1264.81 167.9 1265.43 170.479 1266.6 172.588C1267.77 174.697 1269.44 176.309 1271.61 177.422C1273.83 178.477 1276.47 179.004 1279.52 179.004C1281.92 179.062 1284.29 178.74 1286.64 178.037C1289.04 177.334 1291.12 176.191 1292.88 174.609C1294.63 172.969 1295.75 170.83 1296.22 168.193Z" fill="#325599"/>
<path d="M1445.54 90.2344L1394.04 195H1365.74L1434.12 67.0312H1452.22L1445.54 90.2344ZM1455.74 195L1440.09 87.5098L1441.06 67.0312H1458.02L1482.19 195H1455.74ZM1462.24 147.363L1458.64 168.018H1392.81L1396.41 147.363H1462.24Z" fill="#325599"/>
<path d="M1543.72 67.0312L1521.57 195H1495.82L1518.05 67.0312H1543.72Z" fill="#325599"/>
<path d="M54.484 171.753C52.1483 174.664 52.6592 179.192 55.5789 181.375L72.3182 188.895C74.7269 190.701 77.9871 190.242 79.9336 187.871L102.269 160.405L82.9992 136.714L54.484 171.753ZM160.516 171.753C160.516 171.753 89.4711 84.2628 88.6438 82.7804C92.3907 80.5163 98.4246 77.9558 107.5 77.9558C116.575 77.9558 122.609 80.5163 126.356 82.7804C125.553 84.2898 112.731 100.192 112.731 100.192L131.976 123.83L140.297 113.588C147.28 104.99 148.399 92.4026 143.071 82.4569L132.438 62.6464C131.392 60.7058 130.03 59.0616 128.351 57.7948C118.449 50.3558 97.3541 49.7898 86.6488 57.7948C84.97 59.0616 83.6075 60.7058 82.5612 62.6464L71.9532 82.3761C71.5883 83.0499 62.9267 99.1409 74.7512 113.642L135.115 187.844C137.061 190.242 140.322 190.674 142.73 188.868L159.47 181.348C162.365 179.192 162.876 174.664 160.516 171.753Z" fill="#325599"/>
</svg>
