<svg width="191" height="32" viewBox="0 0 191 32" fill="none" xmlns="http://www.w3.org/2000/svg">
<path d="M47.7771 18.2651L50.8511 18.2221C50.7149 19.3758 50.3244 20.3646 49.6795 21.1887C49.0418 22.0055 48.2392 22.6289 47.2719 23.0589C46.3046 23.4816 45.2548 23.6823 44.1227 23.6608C43.0765 23.6393 42.1951 23.4171 41.4786 22.9944C40.762 22.5644 40.1995 21.9912 39.7911 21.2747C39.3827 20.5581 39.114 19.7591 38.985 18.8778C38.856 17.9964 38.8488 17.0936 38.9635 16.1692L39.114 15.0837C39.2573 14.1091 39.5188 13.1669 39.8986 12.2569C40.2855 11.3468 40.7907 10.5371 41.4141 9.82775C42.0375 9.11836 42.7755 8.55945 43.6282 8.15102C44.4809 7.74259 45.4483 7.54912 46.5303 7.57061C47.6624 7.59211 48.619 7.83574 49.4001 8.3015C50.1883 8.76009 50.7937 9.4014 51.2165 10.2254C51.6464 11.0423 51.8865 11.9989 51.9366 13.0952L48.8089 13.0845C48.8161 12.5041 48.7444 11.9953 48.5939 11.5582C48.4506 11.114 48.1998 10.77 47.8416 10.5264C47.4833 10.2756 46.9889 10.1394 46.3583 10.118C45.6704 10.0965 45.0864 10.2326 44.6063 10.5264C44.1262 10.8202 43.7286 11.2143 43.4133 11.7087C43.1052 12.2031 42.8615 12.7441 42.6824 13.3317C42.5104 13.9193 42.3814 14.4961 42.2954 15.0622L42.145 16.18C42.0876 16.6457 42.0482 17.1616 42.0267 17.7277C42.0052 18.2866 42.0518 18.8205 42.1665 19.3292C42.2811 19.838 42.5032 20.2607 42.8329 20.5975C43.1625 20.9271 43.6533 21.1027 44.3054 21.1242C44.9503 21.1457 45.5056 21.0454 45.9714 20.8232C46.4443 20.6011 46.8276 20.2715 47.1214 19.8344C47.4224 19.3973 47.6409 18.8742 47.7771 18.2651ZM58.5038 20.8232L59.3207 15.6103C59.3565 15.295 59.3422 15.0012 59.2777 14.729C59.2132 14.4567 59.0807 14.2417 58.88 14.0841C58.6866 13.9193 58.4107 13.8297 58.0524 13.8154C57.73 13.8082 57.4398 13.8655 57.1818 13.9873C56.931 14.102 56.7232 14.2704 56.5584 14.4925C56.3936 14.7075 56.2789 14.9654 56.2145 15.2664L53.1834 15.2879C53.2193 14.643 53.3984 14.0876 53.7209 13.6219C54.0505 13.149 54.4661 12.762 54.9677 12.4611C55.4692 12.1601 56.0138 11.938 56.6014 11.7947C57.1961 11.6514 57.7765 11.5869 58.3426 11.6012C59.1523 11.6155 59.8724 11.7839 60.503 12.1064C61.1407 12.4288 61.628 12.891 61.9648 13.4929C62.3087 14.0876 62.4377 14.8114 62.3517 15.6641L61.5456 20.6513C61.4811 21.0669 61.4309 21.5039 61.3951 21.9625C61.3593 22.414 61.4238 22.8439 61.5886 23.2523L61.5671 23.4458L58.6006 23.4565C58.4644 23.0338 58.3963 22.6003 58.3963 22.156C58.4035 21.7046 58.4393 21.2603 58.5038 20.8232ZM59.6646 16.3627L59.3744 18.1147L57.8374 18.1039C57.5293 18.1111 57.2212 18.1541 56.9131 18.2329C56.6121 18.3045 56.3327 18.4192 56.0747 18.5768C55.8168 18.7273 55.6018 18.9244 55.4298 19.168C55.265 19.4116 55.1611 19.709 55.1181 20.0601C55.0823 20.3109 55.1074 20.5366 55.1934 20.7372C55.2794 20.9307 55.4119 21.0848 55.5911 21.1994C55.7774 21.3141 55.9995 21.375 56.2574 21.3821C56.6229 21.3893 56.9812 21.3212 57.3323 21.1779C57.6834 21.0274 57.9879 20.8161 58.2459 20.5438C58.5038 20.2715 58.683 19.9562 58.7833 19.5979L59.4282 20.9415C59.2562 21.3427 59.0377 21.7117 58.7725 22.0485C58.5146 22.3853 58.2172 22.6791 57.8804 22.9299C57.5437 23.1735 57.1746 23.3598 56.7734 23.4888C56.3721 23.6249 55.9422 23.6894 55.4836 23.6823C54.8458 23.6679 54.2583 23.5175 53.7209 23.2308C53.1906 22.937 52.7678 22.5394 52.4526 22.0378C52.1444 21.529 52.0047 20.9379 52.0334 20.2643C52.062 19.5048 52.2519 18.8742 52.603 18.3726C52.9541 17.8639 53.4056 17.4626 53.9573 17.1688C54.5162 16.875 55.1217 16.6672 55.7738 16.5454C56.433 16.4164 57.0851 16.3519 57.73 16.3519L59.6646 16.3627ZM67.8763 14.471L66.3178 23.4458H63.2868L65.3075 11.8162H68.145L67.8763 14.471ZM66.9842 17.2226L66.2318 17.2441C66.3107 16.549 66.4683 15.8611 66.7048 15.1804C66.9412 14.4997 67.2637 13.887 67.6721 13.3424C68.0877 12.7907 68.5929 12.3572 69.1876 12.0419C69.7895 11.7266 70.4881 11.5761 71.2835 11.5905C71.9284 11.612 72.4587 11.7481 72.8743 11.9989C73.297 12.2425 73.6195 12.5721 73.8416 12.9877C74.0709 13.4033 74.2178 13.8727 74.2823 14.3958C74.3539 14.9188 74.3611 15.4634 74.3038 16.0295L73.057 23.4458H70.0152L71.2728 15.9973C71.3158 15.6175 71.305 15.2807 71.2405 14.9869C71.176 14.6931 71.0327 14.4603 70.8106 14.2883C70.5956 14.1163 70.2803 14.0267 69.8647 14.0196C69.4062 14.0052 69.0085 14.0912 68.6717 14.2775C68.3421 14.4638 68.0626 14.7146 67.8333 15.0299C67.604 15.3452 67.4213 15.6927 67.2852 16.0725C67.149 16.4523 67.0487 16.8356 66.9842 17.2226ZM80.4303 21.2532C80.8101 21.2603 81.1468 21.1887 81.4406 21.0382C81.7416 20.8877 81.9888 20.6763 82.1823 20.404C82.3757 20.1318 82.5047 19.8165 82.5692 19.4582L85.4175 19.4474C85.353 20.3145 85.0735 21.0669 84.5791 21.7046C84.0919 22.3423 83.472 22.8331 82.7197 23.1771C81.9745 23.521 81.1827 23.6823 80.3443 23.6608C79.5059 23.6464 78.7858 23.478 78.1839 23.1556C77.5892 22.8331 77.1091 22.4032 76.7436 21.8658C76.3782 21.3212 76.1202 20.7014 75.9698 20.0064C75.8264 19.3113 75.7906 18.5804 75.8623 17.8137L75.8945 17.4913C75.9805 16.6887 76.174 15.9292 76.4749 15.2126C76.7759 14.4889 77.1771 13.8548 77.6787 13.3102C78.1875 12.7584 78.7858 12.3321 79.4737 12.0311C80.1616 11.723 80.939 11.5797 81.8061 11.6012C82.7018 11.6155 83.4685 11.8198 84.1062 12.2139C84.7439 12.6008 85.2276 13.131 85.5572 13.8046C85.894 14.4782 86.0552 15.252 86.0409 16.1262L83.2033 16.1155C83.2105 15.7644 83.1639 15.4312 83.0636 15.1159C82.9633 14.7934 82.7913 14.5355 82.5477 14.342C82.3112 14.1414 81.9888 14.0303 81.5804 14.0088C81.1003 13.9945 80.699 14.0948 80.3765 14.3098C80.0541 14.5176 79.7926 14.8006 79.5919 15.1589C79.3913 15.51 79.2372 15.8934 79.1297 16.309C79.0223 16.7174 78.947 17.1151 78.904 17.502L78.8825 17.8137C78.8467 18.1362 78.8252 18.4944 78.818 18.8885C78.8109 19.2755 78.8503 19.6481 78.9363 20.0064C79.0223 20.3575 79.1799 20.6513 79.4092 20.8877C79.6457 21.117 79.986 21.2388 80.4303 21.2532ZM91.9309 23.6608C91.1356 23.6464 90.419 23.496 89.7813 23.2093C89.1436 22.9156 88.6097 22.5143 88.1798 22.0055C87.757 21.4968 87.4453 20.9056 87.2447 20.2321C87.0441 19.5585 86.9724 18.8348 87.0297 18.0609L87.0727 17.6202C87.1587 16.8105 87.3558 16.0402 87.6639 15.3094C87.972 14.5785 88.384 13.9336 88.8999 13.3747C89.4158 12.8086 90.0249 12.3679 90.7271 12.0526C91.4365 11.7302 92.2247 11.5797 93.0917 11.6012C93.9014 11.6155 94.5929 11.7804 95.1662 12.0956C95.7394 12.4109 96.2016 12.8337 96.5527 13.3639C96.9038 13.8942 97.1438 14.4997 97.2728 15.1804C97.4018 15.8539 97.4269 16.5597 97.3481 17.2978L97.1761 18.5876H88.1905L88.5237 16.5239L94.4568 16.5347L94.5105 16.266C94.5678 15.8719 94.5499 15.5064 94.4568 15.1696C94.3636 14.8257 94.1881 14.5498 93.9301 14.342C93.6722 14.1342 93.3282 14.0232 92.8983 14.0088C92.4039 13.9945 91.9883 14.0984 91.6515 14.3205C91.3147 14.5427 91.0388 14.8364 90.8239 15.2019C90.6089 15.5673 90.4441 15.965 90.3294 16.3949C90.2148 16.8177 90.1324 17.2261 90.0822 17.6202L90.0392 18.0502C90.0034 18.4299 90.0142 18.8097 90.0715 19.1895C90.1288 19.5621 90.2399 19.8989 90.4047 20.1998C90.5767 20.5008 90.8095 20.7444 91.1033 20.9307C91.4043 21.117 91.7805 21.2173 92.2319 21.2317C92.8051 21.246 93.3318 21.1349 93.8119 20.8985C94.2991 20.6548 94.7362 20.3324 95.1232 19.9311L96.4774 21.5649C96.155 22.0521 95.743 22.4534 95.2414 22.7687C94.747 23.0768 94.2131 23.3025 93.6399 23.4458C93.0667 23.5963 92.497 23.6679 91.9309 23.6608ZM102.582 14.514L101.035 23.4458H98.0145L100.035 11.8162H102.873L102.582 14.514ZM106.377 11.7194L106 14.6107C105.828 14.5821 105.653 14.557 105.474 14.5355C105.302 14.514 105.126 14.4997 104.947 14.4925C104.531 14.4853 104.155 14.5391 103.819 14.6537C103.482 14.7684 103.188 14.9368 102.937 15.1589C102.694 15.3739 102.486 15.639 102.314 15.9543C102.149 16.2695 102.024 16.6242 101.938 17.0183L101.346 16.8249C101.418 16.2731 101.536 15.6927 101.701 15.0837C101.873 14.4674 102.11 13.8942 102.41 13.3639C102.719 12.8265 103.109 12.393 103.582 12.0634C104.062 11.7266 104.646 11.5618 105.334 11.569C105.513 11.569 105.685 11.5833 105.85 11.612C106.022 11.6406 106.197 11.6765 106.377 11.7194ZM120.382 7.79633L117.673 23.4458H114.524L117.243 7.79633H120.382ZM125.046 7.79633L124.606 10.3222H112.213L112.654 7.79633H125.046ZM127.733 14.514L126.186 23.4458H123.165L125.186 11.8162H128.024L127.733 14.514ZM131.528 11.7194L131.151 14.6107C130.979 14.5821 130.804 14.557 130.625 14.5355C130.453 14.514 130.277 14.4997 130.098 14.4925C129.682 14.4853 129.306 14.5391 128.969 14.6537C128.633 14.7684 128.339 14.9368 128.088 15.1589C127.844 15.3739 127.637 15.639 127.465 15.9543C127.3 16.2695 127.174 16.6242 127.089 17.0183L126.497 16.8249C126.569 16.2731 126.687 15.6927 126.852 15.0837C127.024 14.4674 127.26 13.8942 127.561 13.3639C127.87 12.8265 128.26 12.393 128.733 12.0634C129.213 11.7266 129.797 11.5618 130.485 11.569C130.664 11.569 130.836 11.5833 131.001 11.612C131.173 11.6406 131.348 11.6765 131.528 11.7194ZM136.192 11.8162L134.182 23.4458H131.151L133.172 11.8162H136.192ZM133.505 8.83891C133.491 8.35165 133.649 7.96113 133.978 7.66735C134.315 7.37356 134.72 7.22309 135.193 7.21592C135.644 7.20876 136.038 7.3449 136.375 7.62436C136.712 7.89664 136.88 8.26567 136.88 8.73143C136.895 9.21868 136.733 9.6092 136.397 9.90299C136.06 10.1968 135.658 10.3472 135.193 10.3544C134.741 10.3616 134.347 10.229 134.01 9.95673C133.681 9.68444 133.512 9.31183 133.505 8.83891ZM143.222 20.8232L144.039 15.6103C144.074 15.295 144.06 15.0012 143.996 14.729C143.931 14.4567 143.798 14.2417 143.598 14.0841C143.404 13.9193 143.129 13.8297 142.77 13.8154C142.448 13.8082 142.158 13.8655 141.9 13.9873C141.649 14.102 141.441 14.2704 141.276 14.4925C141.111 14.7075 140.997 14.9654 140.932 15.2664L137.901 15.2879C137.937 14.643 138.116 14.0876 138.439 13.6219C138.768 13.149 139.184 12.762 139.685 12.4611C140.187 12.1601 140.732 11.938 141.319 11.7947C141.914 11.6514 142.494 11.5869 143.06 11.6012C143.87 11.6155 144.59 11.7839 145.221 12.1064C145.859 12.4288 146.346 12.891 146.683 13.4929C147.027 14.0876 147.156 14.8114 147.07 15.6641L146.263 20.6513C146.199 21.0669 146.149 21.5039 146.113 21.9625C146.077 22.414 146.142 22.8439 146.306 23.2523L146.285 23.4458L143.318 23.4565C143.182 23.0338 143.114 22.6003 143.114 22.156C143.121 21.7046 143.157 21.2603 143.222 20.8232ZM144.382 16.3627L144.092 18.1147L142.555 18.1039C142.247 18.1111 141.939 18.1541 141.631 18.2329C141.33 18.3045 141.051 18.4192 140.793 18.5768C140.535 18.7273 140.32 18.9244 140.148 19.168C139.983 19.4116 139.879 19.709 139.836 20.0601C139.8 20.3109 139.825 20.5366 139.911 20.7372C139.997 20.9307 140.13 21.0848 140.309 21.1994C140.495 21.3141 140.717 21.375 140.975 21.3821C141.341 21.3893 141.699 21.3212 142.05 21.1779C142.401 21.0274 142.706 20.8161 142.964 20.5438C143.222 20.2715 143.401 19.9562 143.501 19.5979L144.146 20.9415C143.974 21.3427 143.755 21.7117 143.49 22.0485C143.232 22.3853 142.935 22.6791 142.598 22.9299C142.261 23.1735 141.892 23.3598 141.491 23.4888C141.09 23.6249 140.66 23.6894 140.201 23.6823C139.564 23.6679 138.976 23.5175 138.439 23.2308C137.908 22.937 137.486 22.5394 137.17 22.0378C136.862 21.529 136.723 20.9379 136.751 20.2643C136.78 19.5048 136.97 18.8742 137.321 18.3726C137.672 17.8639 138.123 17.4626 138.675 17.1688C139.234 16.875 139.84 16.6672 140.492 16.5454C141.151 16.4164 141.803 16.3519 142.448 16.3519L144.382 16.3627ZM154.131 6.93647L151.272 23.4458H148.241L151.1 6.93647H154.131ZM160.473 20.1676C160.53 19.8236 160.444 19.5585 160.215 19.3722C159.985 19.1787 159.702 19.0318 159.366 18.9315C159.036 18.8312 158.749 18.7524 158.506 18.6951C158.076 18.5804 157.642 18.4371 157.205 18.2651C156.775 18.086 156.385 17.8639 156.034 17.5987C155.682 17.3336 155.403 17.0112 155.195 16.6314C154.987 16.2445 154.894 15.7895 154.916 15.2664C154.937 14.643 155.095 14.102 155.389 13.6434C155.69 13.1776 156.077 12.7943 156.549 12.4933C157.022 12.1852 157.538 11.9559 158.097 11.8054C158.656 11.655 159.211 11.5869 159.763 11.6012C160.537 11.6084 161.254 11.7517 161.913 12.0311C162.579 12.3106 163.117 12.7262 163.525 13.2779C163.941 13.8297 164.149 14.5176 164.149 15.3416L161.15 15.3309C161.157 15.0156 161.107 14.7397 160.999 14.5032C160.892 14.2668 160.727 14.0841 160.505 13.9551C160.283 13.8261 160 13.7616 159.656 13.7616C159.383 13.7616 159.111 13.8154 158.839 13.9228C158.574 14.0232 158.344 14.1736 158.151 14.3743C157.958 14.5749 157.836 14.8221 157.786 15.1159C157.743 15.3595 157.778 15.5602 157.893 15.7178C158.008 15.8754 158.162 16.0044 158.355 16.1047C158.549 16.1979 158.753 16.2767 158.968 16.3412C159.183 16.3985 159.376 16.4451 159.548 16.4809C160.179 16.6457 160.795 16.8571 161.397 17.1151C161.999 17.373 162.49 17.7349 162.869 18.2006C163.249 18.6592 163.425 19.2719 163.396 20.0386C163.375 20.6907 163.203 21.2496 162.88 21.7153C162.558 22.1739 162.142 22.5501 161.633 22.8439C161.132 23.1305 160.587 23.3383 160 23.4673C159.419 23.6034 158.85 23.6679 158.291 23.6608C157.51 23.6464 156.775 23.4888 156.087 23.1878C155.407 22.8869 154.855 22.4498 154.432 21.8766C154.009 21.2961 153.794 20.5868 153.787 19.7484L156.625 19.7591C156.632 20.1318 156.707 20.447 156.85 20.705C156.994 20.963 157.198 21.16 157.463 21.2961C157.735 21.4251 158.058 21.4896 158.43 21.4896C158.724 21.4968 159.014 21.4574 159.301 21.3714C159.595 21.2854 159.849 21.1457 160.064 20.9522C160.279 20.7516 160.415 20.49 160.473 20.1676ZM178.734 10.6339L172.435 23.4458H168.974L177.337 7.79633H179.551L178.734 10.6339ZM179.981 23.4458L178.068 10.3007L178.186 7.79633H180.26L183.216 23.4458H179.981ZM180.776 17.6202L180.335 20.1461H172.285L172.726 17.6202H180.776ZM190.74 7.79633L188.031 23.4458H184.882L187.601 7.79633H190.74Z" fill="white"/>
<path d="M23.8828 26.6429L27.2335 23.0772L31.1216 26.5823C32.1251 27.487 32.1886 29.0186 31.2634 30.0032V30.0032C30.3381 30.9878 28.7745 31.0526 27.7709 30.1479L23.8828 26.6429Z" fill="white"/>
<path d="M26.1059 4.4992C23.2179 1.61804 19.305 0 15.2255 0C11.1461 0 7.23317 1.61804 4.34511 4.4992C3.5055 5.32886 2.77002 6.25765 2.15491 7.26509C2.58341 6.65024 3.064 6.07339 3.59136 5.54091C5.67752 3.4396 8.406 2.09564 11.3434 1.72251C14.2808 1.34939 17.2586 1.9685 19.8039 3.4815C22.3491 4.9945 24.3158 7.31462 25.3916 10.0733C26.4673 12.832 26.5904 15.871 25.7413 18.7077C24.8922 21.5443 23.1196 24.0159 20.705 25.7298C18.2905 27.4437 15.3725 28.3016 12.4145 28.1673C9.45657 28.033 6.62833 26.9141 4.37907 24.9884C2.1298 23.0627 0.588499 20.4406 0 17.5386C0.339027 19.9566 1.24843 22.2592 2.65309 24.2562C4.05776 26.2533 5.91738 27.8875 8.07836 29.0239C10.2393 30.1603 12.6397 30.7663 15.0811 30.7918C17.5225 30.8173 19.935 30.2616 22.1193 29.1706C24.3035 28.0796 26.1969 26.4846 27.643 24.5174C29.0891 22.5501 30.0464 20.267 30.4359 17.8567C30.8254 15.4464 30.6358 12.978 29.8829 10.6554C29.1301 8.33279 27.8354 6.22263 26.1059 4.4992V4.4992Z" fill="white"/>
<g clip-path="url(#clip0_1727_2)">
<path d="M6.66404 21.0042C6.3784 21.3601 6.44088 21.9139 6.79793 22.1809L8.84502 23.1005C9.13958 23.3214 9.53829 23.2653 9.77632 22.9753L12.5078 19.6165L10.1512 16.7191L6.66404 21.0042ZM19.6309 21.0042C19.6309 21.0042 10.9427 10.3047 10.8415 10.1234C11.2997 9.84657 12.0376 9.53343 13.1475 9.53343C14.2573 9.53343 14.9952 9.84657 15.4534 10.1234C15.3552 10.308 13.7872 12.2528 13.7872 12.2528L16.1407 15.1435L17.1583 13.891C18.0123 12.8395 18.1491 11.3002 17.4975 10.0839L16.1973 7.66119C16.0693 7.42387 15.9027 7.2228 15.6974 7.06788C14.4864 6.15813 11.9067 6.08891 10.5975 7.06788C10.3922 7.2228 10.2256 7.42387 10.0977 7.66119L8.80039 10.074C8.75576 10.1564 7.69651 12.1242 9.14256 13.8976L16.5246 22.972C16.7626 23.2653 17.1613 23.3181 17.4559 23.0972L19.503 22.1776C19.857 21.9139 19.9195 21.3601 19.6309 21.0042Z" fill="white"/>
</g>
<defs>
<clipPath id="clip0_1727_2">
<rect width="13.3299" height="16.8765" fill="white" transform="translate(6.48242 6.35925)"/>
</clipPath>
</defs>
</svg>
