<svg width="39" height="40" viewBox="0 0 39 40" fill="none" xmlns="http://www.w3.org/2000/svg">
<path d="M18.0005 37.9994C16.662 38.0557 9.00183 34.2333 6.33376 29.93C3.66569 25.6276 2 14.4106 2 6.96607C10.0072 6.96607 15.1698 4.63534 18.0005 2C20.8292 4.63257 26.0037 6.96607 34 6.96515C33.9328 11.91 33.2635 18.5492 32.0108 23.6919" stroke="#14A211" stroke-width="3" stroke-linecap="round" stroke-linejoin="round"/>
<path d="M12 25V15H25M12 25H25V15" stroke="#14A211" stroke-width="3" stroke-linecap="round" stroke-linejoin="round"/>
<path d="M16 12.5197C16 11.8515 16.2634 11.2106 16.7322 10.738C17.2011 10.2655 17.837 10 18.5 10C19.163 10 19.7989 10.2655 20.2678 10.738C20.7366 11.2106 21 11.8515 21 12.5197V15M16.0012 12.4673V15" stroke="#14A211" stroke-width="3" stroke-linecap="round" stroke-linejoin="round"/>
<rect width="3.03259" height="7.6609" rx="1" transform="matrix(0.64166 -0.766989 0.760707 0.649095 20.7715 32.1462)" fill="#45A54E"/>
<path d="M34.3391 27.4371C34.782 27.1071 35.4106 27.197 35.7432 27.6379L36.333 28.4197C36.6656 28.8606 36.5762 29.4855 36.1334 29.8155L27.1274 36.5254C26.6845 36.8554 26.0558 36.7655 25.7232 36.3246L24.5312 34.7445L34.3391 27.4371Z" fill="#45A54E"/>
</svg>
